<mxfile host="app.diagrams.net" modified="2023-07-03T07:21:10.883Z" agent="Mozilla/5.0 (Windows NT 10.0; Win64; x64) AppleWebKit/537.36 (KHTML, like Gecko) Chrome/114.0.0.0 Safari/537.36" etag="gjmTwNM8gCjxlLTuO-f9" version="21.5.2" type="device">
  <diagram name="第 1 页" id="DybARGGq51HvGMLF3MA7">
    <mxGraphModel dx="1050" dy="541" grid="1" gridSize="10" guides="1" tooltips="1" connect="1" arrows="1" fold="1" page="1" pageScale="1" pageWidth="827" pageHeight="1169" math="0" shadow="0">
      <root>
        <mxCell id="0" />
        <mxCell id="1" parent="0" />
        <mxCell id="_rA3GJIKFx0S9ohhFXeV-2" value="" style="rounded=0;whiteSpace=wrap;html=1;sketch=1;curveFitting=1;jiggle=2;strokeWidth=2;" vertex="1" parent="1">
          <mxGeometry x="240" y="40" width="400" height="500" as="geometry" />
        </mxCell>
        <mxCell id="_rA3GJIKFx0S9ohhFXeV-3" value="" style="rounded=0;whiteSpace=wrap;html=1;fillColor=#dae8fc;strokeColor=#6c8ebf;glass=0;shadow=0;strokeWidth=2;" vertex="1" parent="1">
          <mxGeometry x="250" y="50" width="380" height="130" as="geometry" />
        </mxCell>
        <mxCell id="_rA3GJIKFx0S9ohhFXeV-5" value="" style="rounded=0;whiteSpace=wrap;html=1;fillColor=#dae8fc;strokeColor=#6c8ebf;strokeWidth=2;" vertex="1" parent="1">
          <mxGeometry x="260" y="192" width="360" height="340" as="geometry" />
        </mxCell>
        <mxCell id="_rA3GJIKFx0S9ohhFXeV-6" value="" style="rounded=0;whiteSpace=wrap;html=1;fillColor=#f8cecc;strokeColor=#b85450;" vertex="1" parent="1">
          <mxGeometry x="260" y="60" width="90" height="110" as="geometry" />
        </mxCell>
        <mxCell id="_rA3GJIKFx0S9ohhFXeV-7" value="" style="rounded=0;whiteSpace=wrap;html=1;fillColor=#f8cecc;strokeColor=#b85450;" vertex="1" parent="1">
          <mxGeometry x="360" y="60" width="160" height="110" as="geometry" />
        </mxCell>
        <mxCell id="_rA3GJIKFx0S9ohhFXeV-8" value="" style="rounded=0;whiteSpace=wrap;html=1;fillColor=#f8cecc;strokeColor=#b85450;" vertex="1" parent="1">
          <mxGeometry x="530" y="60" width="90" height="110" as="geometry" />
        </mxCell>
        <mxCell id="_rA3GJIKFx0S9ohhFXeV-9" value="" style="whiteSpace=wrap;html=1;aspect=fixed;rounded=1;fillColor=#e1d5e7;strokeColor=#9673a6;" vertex="1" parent="1">
          <mxGeometry x="270" y="217" width="40" height="40" as="geometry" />
        </mxCell>
        <mxCell id="_rA3GJIKFx0S9ohhFXeV-10" value="" style="whiteSpace=wrap;html=1;aspect=fixed;rounded=1;fillColor=#e1d5e7;strokeColor=#9673a6;" vertex="1" parent="1">
          <mxGeometry x="320" y="217" width="40" height="40" as="geometry" />
        </mxCell>
        <mxCell id="_rA3GJIKFx0S9ohhFXeV-11" value="" style="whiteSpace=wrap;html=1;aspect=fixed;rounded=1;fillColor=#e1d5e7;strokeColor=#9673a6;" vertex="1" parent="1">
          <mxGeometry x="371" y="217" width="40" height="40" as="geometry" />
        </mxCell>
        <mxCell id="_rA3GJIKFx0S9ohhFXeV-12" value="" style="whiteSpace=wrap;html=1;aspect=fixed;rounded=1;fillColor=#e1d5e7;strokeColor=#9673a6;" vertex="1" parent="1">
          <mxGeometry x="420" y="217" width="40" height="40" as="geometry" />
        </mxCell>
        <mxCell id="_rA3GJIKFx0S9ohhFXeV-14" value="" style="whiteSpace=wrap;html=1;aspect=fixed;rounded=1;fillColor=#e1d5e7;strokeColor=#9673a6;" vertex="1" parent="1">
          <mxGeometry x="470" y="217" width="40" height="40" as="geometry" />
        </mxCell>
        <mxCell id="_rA3GJIKFx0S9ohhFXeV-15" value="" style="whiteSpace=wrap;html=1;aspect=fixed;rounded=1;fillColor=#e1d5e7;strokeColor=#9673a6;" vertex="1" parent="1">
          <mxGeometry x="520" y="217" width="40" height="40" as="geometry" />
        </mxCell>
        <mxCell id="_rA3GJIKFx0S9ohhFXeV-16" value="" style="whiteSpace=wrap;html=1;aspect=fixed;rounded=1;fillColor=#e1d5e7;strokeColor=#9673a6;" vertex="1" parent="1">
          <mxGeometry x="570" y="217" width="40" height="40" as="geometry" />
        </mxCell>
        <mxCell id="_rA3GJIKFx0S9ohhFXeV-17" value="" style="whiteSpace=wrap;html=1;aspect=fixed;rounded=1;fillColor=#e1d5e7;strokeColor=#9673a6;" vertex="1" parent="1">
          <mxGeometry x="270" y="267" width="40" height="40" as="geometry" />
        </mxCell>
        <mxCell id="_rA3GJIKFx0S9ohhFXeV-18" value="" style="whiteSpace=wrap;html=1;aspect=fixed;rounded=1;fillColor=#e1d5e7;strokeColor=#9673a6;" vertex="1" parent="1">
          <mxGeometry x="320" y="267" width="40" height="40" as="geometry" />
        </mxCell>
        <mxCell id="_rA3GJIKFx0S9ohhFXeV-19" value="" style="whiteSpace=wrap;html=1;aspect=fixed;rounded=1;fillColor=#e1d5e7;strokeColor=#9673a6;" vertex="1" parent="1">
          <mxGeometry x="371" y="267" width="40" height="40" as="geometry" />
        </mxCell>
        <mxCell id="_rA3GJIKFx0S9ohhFXeV-20" value="" style="whiteSpace=wrap;html=1;aspect=fixed;rounded=1;fillColor=#e1d5e7;strokeColor=#9673a6;" vertex="1" parent="1">
          <mxGeometry x="420" y="267" width="40" height="40" as="geometry" />
        </mxCell>
        <mxCell id="_rA3GJIKFx0S9ohhFXeV-21" value="" style="whiteSpace=wrap;html=1;aspect=fixed;rounded=1;fillColor=#e1d5e7;strokeColor=#9673a6;" vertex="1" parent="1">
          <mxGeometry x="470" y="267" width="40" height="40" as="geometry" />
        </mxCell>
        <mxCell id="_rA3GJIKFx0S9ohhFXeV-22" value="" style="whiteSpace=wrap;html=1;aspect=fixed;rounded=1;fillColor=#e1d5e7;strokeColor=#9673a6;" vertex="1" parent="1">
          <mxGeometry x="520" y="267" width="40" height="40" as="geometry" />
        </mxCell>
        <mxCell id="_rA3GJIKFx0S9ohhFXeV-23" value="" style="whiteSpace=wrap;html=1;aspect=fixed;rounded=1;fillColor=#e1d5e7;strokeColor=#9673a6;" vertex="1" parent="1">
          <mxGeometry x="570" y="267" width="40" height="40" as="geometry" />
        </mxCell>
        <mxCell id="_rA3GJIKFx0S9ohhFXeV-24" value="" style="whiteSpace=wrap;html=1;aspect=fixed;rounded=1;fillColor=#e1d5e7;strokeColor=#9673a6;" vertex="1" parent="1">
          <mxGeometry x="270" y="317" width="40" height="40" as="geometry" />
        </mxCell>
        <mxCell id="_rA3GJIKFx0S9ohhFXeV-25" value="" style="whiteSpace=wrap;html=1;aspect=fixed;rounded=1;fillColor=#e1d5e7;strokeColor=#9673a6;" vertex="1" parent="1">
          <mxGeometry x="320" y="317" width="40" height="40" as="geometry" />
        </mxCell>
        <mxCell id="_rA3GJIKFx0S9ohhFXeV-26" value="" style="whiteSpace=wrap;html=1;aspect=fixed;rounded=1;fillColor=#e1d5e7;strokeColor=#9673a6;" vertex="1" parent="1">
          <mxGeometry x="371" y="317" width="40" height="40" as="geometry" />
        </mxCell>
        <mxCell id="_rA3GJIKFx0S9ohhFXeV-27" value="" style="whiteSpace=wrap;html=1;aspect=fixed;rounded=1;fillColor=#e1d5e7;strokeColor=#9673a6;" vertex="1" parent="1">
          <mxGeometry x="420" y="317" width="40" height="40" as="geometry" />
        </mxCell>
        <mxCell id="_rA3GJIKFx0S9ohhFXeV-28" value="" style="whiteSpace=wrap;html=1;aspect=fixed;rounded=1;fillColor=#e1d5e7;strokeColor=#9673a6;" vertex="1" parent="1">
          <mxGeometry x="470" y="317" width="40" height="40" as="geometry" />
        </mxCell>
        <mxCell id="_rA3GJIKFx0S9ohhFXeV-29" value="" style="whiteSpace=wrap;html=1;aspect=fixed;rounded=1;fillColor=#e1d5e7;strokeColor=#9673a6;" vertex="1" parent="1">
          <mxGeometry x="520" y="317" width="40" height="40" as="geometry" />
        </mxCell>
        <mxCell id="_rA3GJIKFx0S9ohhFXeV-30" value="" style="whiteSpace=wrap;html=1;aspect=fixed;rounded=1;fillColor=#e1d5e7;strokeColor=#9673a6;" vertex="1" parent="1">
          <mxGeometry x="570" y="317" width="40" height="40" as="geometry" />
        </mxCell>
        <mxCell id="_rA3GJIKFx0S9ohhFXeV-31" value="" style="whiteSpace=wrap;html=1;aspect=fixed;rounded=1;fillColor=#e1d5e7;strokeColor=#9673a6;" vertex="1" parent="1">
          <mxGeometry x="270" y="367" width="40" height="40" as="geometry" />
        </mxCell>
        <mxCell id="_rA3GJIKFx0S9ohhFXeV-32" value="" style="whiteSpace=wrap;html=1;aspect=fixed;rounded=1;fillColor=#e1d5e7;strokeColor=#9673a6;" vertex="1" parent="1">
          <mxGeometry x="320" y="367" width="40" height="40" as="geometry" />
        </mxCell>
        <mxCell id="_rA3GJIKFx0S9ohhFXeV-33" value="" style="whiteSpace=wrap;html=1;aspect=fixed;rounded=1;fillColor=#e1d5e7;strokeColor=#9673a6;" vertex="1" parent="1">
          <mxGeometry x="371" y="367" width="40" height="40" as="geometry" />
        </mxCell>
        <mxCell id="_rA3GJIKFx0S9ohhFXeV-34" value="" style="whiteSpace=wrap;html=1;aspect=fixed;rounded=1;fillColor=#e1d5e7;strokeColor=#9673a6;" vertex="1" parent="1">
          <mxGeometry x="420" y="367" width="40" height="40" as="geometry" />
        </mxCell>
        <mxCell id="_rA3GJIKFx0S9ohhFXeV-35" value="" style="whiteSpace=wrap;html=1;aspect=fixed;rounded=1;fillColor=#e1d5e7;strokeColor=#9673a6;" vertex="1" parent="1">
          <mxGeometry x="470" y="367" width="40" height="40" as="geometry" />
        </mxCell>
        <mxCell id="_rA3GJIKFx0S9ohhFXeV-36" value="" style="whiteSpace=wrap;html=1;aspect=fixed;rounded=1;fillColor=#e1d5e7;strokeColor=#9673a6;" vertex="1" parent="1">
          <mxGeometry x="520" y="367" width="40" height="40" as="geometry" />
        </mxCell>
        <mxCell id="_rA3GJIKFx0S9ohhFXeV-37" value="" style="whiteSpace=wrap;html=1;aspect=fixed;rounded=1;fillColor=#e1d5e7;strokeColor=#9673a6;" vertex="1" parent="1">
          <mxGeometry x="570" y="367" width="40" height="40" as="geometry" />
        </mxCell>
        <mxCell id="_rA3GJIKFx0S9ohhFXeV-38" value="" style="whiteSpace=wrap;html=1;aspect=fixed;rounded=1;fillColor=#e1d5e7;strokeColor=#9673a6;" vertex="1" parent="1">
          <mxGeometry x="270" y="417" width="40" height="40" as="geometry" />
        </mxCell>
        <mxCell id="_rA3GJIKFx0S9ohhFXeV-39" value="" style="whiteSpace=wrap;html=1;aspect=fixed;rounded=1;fillColor=#e1d5e7;strokeColor=#9673a6;" vertex="1" parent="1">
          <mxGeometry x="320" y="417" width="40" height="40" as="geometry" />
        </mxCell>
        <mxCell id="_rA3GJIKFx0S9ohhFXeV-40" value="" style="whiteSpace=wrap;html=1;aspect=fixed;rounded=1;fillColor=#e1d5e7;strokeColor=#9673a6;" vertex="1" parent="1">
          <mxGeometry x="371" y="417" width="40" height="40" as="geometry" />
        </mxCell>
        <mxCell id="_rA3GJIKFx0S9ohhFXeV-41" value="" style="whiteSpace=wrap;html=1;aspect=fixed;rounded=1;fillColor=#e1d5e7;strokeColor=#9673a6;" vertex="1" parent="1">
          <mxGeometry x="420" y="417" width="40" height="40" as="geometry" />
        </mxCell>
        <mxCell id="_rA3GJIKFx0S9ohhFXeV-42" value="" style="whiteSpace=wrap;html=1;aspect=fixed;rounded=1;fillColor=#e1d5e7;strokeColor=#9673a6;" vertex="1" parent="1">
          <mxGeometry x="470" y="417" width="40" height="40" as="geometry" />
        </mxCell>
        <mxCell id="_rA3GJIKFx0S9ohhFXeV-43" value="" style="whiteSpace=wrap;html=1;aspect=fixed;rounded=1;fillColor=#e1d5e7;strokeColor=#9673a6;" vertex="1" parent="1">
          <mxGeometry x="520" y="417" width="40" height="40" as="geometry" />
        </mxCell>
        <mxCell id="_rA3GJIKFx0S9ohhFXeV-44" value="" style="whiteSpace=wrap;html=1;aspect=fixed;rounded=1;fillColor=#e1d5e7;strokeColor=#9673a6;" vertex="1" parent="1">
          <mxGeometry x="570" y="417" width="40" height="40" as="geometry" />
        </mxCell>
        <mxCell id="_rA3GJIKFx0S9ohhFXeV-45" value="" style="whiteSpace=wrap;html=1;aspect=fixed;rounded=1;fillColor=#e1d5e7;strokeColor=#9673a6;" vertex="1" parent="1">
          <mxGeometry x="270" y="467" width="40" height="40" as="geometry" />
        </mxCell>
        <mxCell id="_rA3GJIKFx0S9ohhFXeV-46" value="" style="whiteSpace=wrap;html=1;aspect=fixed;rounded=1;fillColor=#e1d5e7;strokeColor=#9673a6;" vertex="1" parent="1">
          <mxGeometry x="320" y="467" width="40" height="40" as="geometry" />
        </mxCell>
        <mxCell id="_rA3GJIKFx0S9ohhFXeV-47" value="" style="whiteSpace=wrap;html=1;aspect=fixed;rounded=1;fillColor=#e1d5e7;strokeColor=#9673a6;" vertex="1" parent="1">
          <mxGeometry x="371" y="467" width="40" height="40" as="geometry" />
        </mxCell>
        <mxCell id="_rA3GJIKFx0S9ohhFXeV-48" value="" style="whiteSpace=wrap;html=1;aspect=fixed;rounded=1;fillColor=#e1d5e7;strokeColor=#9673a6;" vertex="1" parent="1">
          <mxGeometry x="420" y="467" width="40" height="40" as="geometry" />
        </mxCell>
        <mxCell id="_rA3GJIKFx0S9ohhFXeV-49" value="" style="whiteSpace=wrap;html=1;aspect=fixed;rounded=1;fillColor=#e1d5e7;strokeColor=#9673a6;" vertex="1" parent="1">
          <mxGeometry x="470" y="467" width="40" height="40" as="geometry" />
        </mxCell>
        <mxCell id="_rA3GJIKFx0S9ohhFXeV-50" value="" style="whiteSpace=wrap;html=1;aspect=fixed;rounded=1;fillColor=#e1d5e7;strokeColor=#9673a6;" vertex="1" parent="1">
          <mxGeometry x="520" y="467" width="40" height="40" as="geometry" />
        </mxCell>
        <mxCell id="_rA3GJIKFx0S9ohhFXeV-51" value="" style="whiteSpace=wrap;html=1;aspect=fixed;rounded=1;fillColor=#e1d5e7;strokeColor=#9673a6;" vertex="1" parent="1">
          <mxGeometry x="570" y="467" width="40" height="40" as="geometry" />
        </mxCell>
        <mxCell id="_rA3GJIKFx0S9ohhFXeV-59" value="" style="rounded=0;whiteSpace=wrap;html=1;fillColor=#d5e8d4;strokeColor=#82b366;" vertex="1" parent="1">
          <mxGeometry x="367.5" y="70" width="145" height="45" as="geometry" />
        </mxCell>
        <mxCell id="_rA3GJIKFx0S9ohhFXeV-60" value="" style="rounded=0;whiteSpace=wrap;html=1;fillColor=#d5e8d4;strokeColor=#82b366;" vertex="1" parent="1">
          <mxGeometry x="367.5" y="120" width="145" height="45" as="geometry" />
        </mxCell>
        <mxCell id="_rA3GJIKFx0S9ohhFXeV-61" value="" style="rounded=0;whiteSpace=wrap;html=1;fillColor=#d5e8d4;strokeColor=#82b366;" vertex="1" parent="1">
          <mxGeometry x="268.75" y="71" width="72.5" height="45" as="geometry" />
        </mxCell>
        <mxCell id="_rA3GJIKFx0S9ohhFXeV-62" value="" style="rounded=0;whiteSpace=wrap;html=1;fillColor=#d5e8d4;strokeColor=#82b366;" vertex="1" parent="1">
          <mxGeometry x="268.75" y="116" width="72.5" height="45" as="geometry" />
        </mxCell>
      </root>
    </mxGraphModel>
  </diagram>
</mxfile>
